<svg width="20" height="20" viewBox="0 0 20 20" fill="none" xmlns="http://www.w3.org/2000/svg">
<path d="M7.50008 18.3332H12.5001C16.6667 18.3332 18.3334 16.6665 18.3334 12.4998V7.49984C18.3334 3.33317 16.6667 1.6665 12.5001 1.6665H7.50008C3.33341 1.6665 1.66675 3.33317 1.66675 7.49984V12.4998C1.66675 16.6665 3.33341 18.3332 7.50008 18.3332Z" stroke="#6E6E6E" stroke-linecap="round" stroke-linejoin="round"/>
<path d="M12.9167 8.125C13.6071 8.125 14.1667 7.56536 14.1667 6.875C14.1667 6.18464 13.6071 5.625 12.9167 5.625C12.2264 5.625 11.6667 6.18464 11.6667 6.875C11.6667 7.56536 12.2264 8.125 12.9167 8.125Z" stroke="#6E6E6E" stroke-miterlimit="10" stroke-linecap="round" stroke-linejoin="round"/>
<path d="M7.08325 8.125C7.77361 8.125 8.33325 7.56536 8.33325 6.875C8.33325 6.18464 7.77361 5.625 7.08325 5.625C6.3929 5.625 5.83325 6.18464 5.83325 6.875C5.83325 7.56536 6.3929 8.125 7.08325 8.125Z" stroke="#6E6E6E" stroke-miterlimit="10" stroke-linecap="round" stroke-linejoin="round"/>
<path d="M7 11.0835H13C13.4167 11.0835 13.75 11.4168 13.75 11.8335C13.75 13.9085 12.075 15.5835 10 15.5835C7.925 15.5835 6.25 13.9085 6.25 11.8335C6.25 11.4168 6.58333 11.0835 7 11.0835Z" stroke="#6E6E6E" stroke-miterlimit="10" stroke-linecap="round" stroke-linejoin="round"/>
</svg>
